<?xml version="1.0" encoding="utf-8"?>
<!-- Generator: Adobe Illustrator 19.1.0, SVG Export Plug-In . SVG Version: 6.00 Build 0)  -->
<svg version="1.1" id="Layer_1" xmlns="http://www.w3.org/2000/svg" xmlns:xlink="http://www.w3.org/1999/xlink" x="0px" y="0px"
	 viewBox="0 0 282 287.1" style="enable-background:new 0 0 282 287.1;" xml:space="preserve">
<style type="text/css">
	.st0{fill:#FFD400;}
	.st1{fill:#CADB2A;}
	.st2{fill:#F7941E;}
	.st3{fill:#FFE72D;}
	.st4{fill:#FFC20E;}
</style>
<g>
	<path class="st0" d="M98.5,40c18.1-12.2,39.5-19.3,62.5-19.3c28.6,0,54.8,10.9,75.1,29.1c-22.5-26-56.8-42.6-95.1-42.6
		c-8.4,0-16.6,0.8-24.5,2.3c-6.3,1.2-12.4,2.9-18.3,4.9c0,0-0.1,0-0.1,0C77.9,21.7,60.2,33.6,46.6,49C31.9,65.7,22,86.3,19.1,109
		c-0.6,4.6-0.9,9.3-0.9,14c0,62.6,52.7,113.6,118.6,115.6c-51.1-1.9-92-43.9-92-95.5c0-1,0-2,0-3l0,0C46,98.1,67.1,61.3,98.5,40"/>
	<path class="st1" d="M234.4,160.6l0.6-0.5c0.7-5.4,1.1-11,1.1-16.6l0-0.5C236,149.1,235.5,154.9,234.4,160.6"/>
	<path class="st2" d="M261.9,143.3C251.7,88.8,201.5,47.5,141,47.5c-0.1,0-0.2,0-0.3,0c52.7,0.2,95.3,42.9,95.3,95.6l0,0.5
		c0,5.6-0.4,11.2-1.1,16.6c-2.7,20.9-10.2,40.1-21.5,56.2c-20.7,29.7-53.7,49.2-91,49.9c-0.7,0-1.4,0-2.1,0
		c-23.1,0-44.7-7.2-62.7-19.6c-3.6-2.5-7.1-5.1-10.4-8c3.1,3.5,6.4,6.8,9.9,9.9c21.9,19.4,51.4,31.3,83.8,31.3
		c33.9,0,64.6-13,86.8-34.1c2.7-2.5,5.2-5.2,7.6-7.9c17.7-20.1,28.3-46,28.3-74.2C263.8,156.7,263.1,149.9,261.9,143.3"/>
	<g>
		<path class="st3" d="M236.2,49.8c-20.3-18.1-46.5-29.1-75.1-29.1c-23,0-44.5,7.1-62.5,19.3C67.1,61.3,46,98.1,44.9,140.1l0,0
			C46,103.5,67.7,72.1,98.8,57c11.5-5.6,24.3-8.9,37.9-9.4c1.2,0,2.5-0.1,3.7-0.1c0.1,0,0.2,0,0.3,0c0,0,0,0,0,0c0.1,0,0.2,0,0.3,0
			c60.5,0,110.7,41.4,120.9,95.8c1.2,6.6,1.9,13.4,1.9,20.4c0,28.2-10.6,54.1-28.3,74.2c25.5-22.5,41.8-56.4,41.8-94.3
			C277.3,106,261.3,72.4,236.2,49.8"/>
	</g>
	<path class="st4" d="M234.4,160.6c-8.2,44.3-47,77.9-93.7,78.1c-0.1,0-0.2,0-0.3,0c-1.2,0-2.4,0-3.6-0.1
		C71,236.5,18.2,185.6,18.2,123c0-4.7,0.3-9.4,0.9-14C22,86.3,31.9,65.7,46.6,49c-15.7,13.8-28,32-35,52.8
		c-4.4,13-6.9,27.1-6.9,41.7c0,38.4,16.6,72.6,42.6,95.1c3.3,2.9,6.8,5.5,10.4,8c18.1,12.4,39.6,19.6,62.7,19.6c0.7,0,1.4,0,2.1,0
		c37.3-0.7,70.4-20.2,91-49.9c11.2-16.2,18.8-35.4,21.5-56.2L234.4,160.6"/>
</g>
</svg>
